<?xml version="1.0" standalone="no"?>
<!DOCTYPE svg PUBLIC "-//W3C//DTD SVG 20010904//EN"
 "http://www.w3.org/TR/2001/REC-SVG-20010904/DTD/svg10.dtd">
<svg version="1.0" xmlns="http://www.w3.org/2000/svg"
 width="600.000000pt" height="600.000000pt" viewBox="0 0 600.000000 600.000000"
 preserveAspectRatio="xMidYMid meet">

<g transform="translate(0.000000,600.000000) scale(0.100000,-0.100000)"
fill="#000000" stroke="none">
<path d="M2722 5939 c-196 -17 -513 -88 -702 -156 -195 -70 -439 -187 -595
-286 -653 -413 -1141 -1093 -1305 -1817 -35 -157 -57 -301 -70 -455 -11 -134
-13 -358 -4 -392 l6 -23 287 0 287 0 64 203 c35 111 80 259 100 329 20 71 39
130 42 133 3 4 11 -16 17 -42 43 -190 193 -831 197 -843 3 -8 24 37 47 100
l42 115 587 3 588 2 5 23 c2 12 16 74 31 137 14 63 36 162 49 220 101 452 137
607 149 635 16 37 61 54 95 35 25 -13 31 -35 75 -265 36 -188 116 -597 217
-1115 33 -168 63 -314 68 -325 5 -14 11 3 20 60 7 44 46 249 87 454 116 586
200 798 394 989 40 40 69 72 63 72 -30 0 -167 -42 -221 -68 -69 -34 -69 -34
-1 58 106 145 279 244 480 272 l79 11 -27 17 c-52 31 -138 58 -228 70 -49 6
-91 13 -93 15 -6 5 108 46 184 65 114 29 197 34 298 16 49 -9 91 -14 93 -12 2
2 -13 16 -34 32 -64 48 -183 165 -244 241 -73 92 -160 246 -199 350 -33 91
-63 237 -58 286 3 31 4 29 37 -37 142 -289 425 -568 703 -692 l26 -12 -29 42
c-88 131 -153 319 -164 471 l-6 80 48 -90 c83 -155 162 -265 273 -375 112
-113 174 -163 295 -236 137 -83 189 -150 249 -315 25 -70 62 -119 126 -171 62
-49 139 -84 164 -75 8 3 18 28 23 57 l8 51 35 -53 c78 -119 100 -261 64 -402
-23 -90 -25 -91 -64 -38 -48 64 -124 105 -199 105 -54 0 -57 1 -100 49 -74 83
-174 122 -340 133 -55 4 -101 5 -101 2 0 -3 28 -22 61 -43 66 -40 138 -97 252
-201 96 -88 157 -116 241 -111 l64 3 -14 -35 c-24 -60 -93 -114 -181 -142 -73
-24 -163 -44 -163 -36 0 2 4 19 10 38 22 77 -35 162 -147 218 -77 38 -127 49
-258 57 -141 8 -201 25 -242 67 -71 74 -94 196 -53 286 l19 42 -57 0 c-330 -1
-635 -233 -792 -603 -79 -186 -97 -261 -231 -952 -50 -259 -88 -427 -97 -437
-19 -23 -64 -23 -92 0 -19 15 -37 98 -149 662 -70 355 -145 733 -166 840 -36
187 -54 253 -55 203 0 -12 -27 -138 -59 -280 -32 -142 -62 -274 -66 -293 -3
-19 -16 -70 -27 -112 l-20 -78 -593 0 -592 0 -104 -289 c-57 -160 -107 -287
-111 -283 -3 4 -31 120 -62 257 -102 462 -127 570 -133 585 -3 8 -27 -49 -52
-128 l-46 -143 -333 1 c-263 0 -332 -2 -332 -12 0 -35 43 -267 69 -373 70
-284 211 -612 366 -855 183 -286 464 -589 737 -794 419 -314 967 -527 1483
-576 141 -13 449 -13 590 0 531 50 1108 287 1532 628 849 684 1249 1713 1083
2782 -47 301 -132 563 -276 846 -175 344 -378 611 -651 857 -343 309 -643 484
-1088 634 -149 50 -468 118 -630 133 -126 12 -416 11 -553 -1z m443 -1027 c72
-42 191 -113 265 -158 l135 -83 35 -72 c19 -40 47 -90 63 -111 15 -21 24 -38
21 -38 -3 0 -123 68 -267 152 -144 83 -281 162 -304 176 l-43 24 0 -245 0
-245 28 -6 c15 -3 101 -19 192 -36 91 -17 180 -34 199 -38 l33 -7 -88 -53
c-48 -28 -97 -52 -108 -52 -12 0 -58 9 -103 19 -46 10 -83 15 -83 11 0 -5 34
-72 75 -149 l76 -142 -47 -59 c-26 -33 -48 -59 -49 -58 -2 3 -71 131 -145 270
l-46 87 -90 -169 c-49 -93 -91 -170 -94 -170 -3 0 -16 44 -28 97 l-22 97 51
94 c28 51 48 96 46 99 -5 5 -176 -26 -712 -127 -170 -32 -402 -75 -515 -96
-113 -20 -206 -38 -208 -39 -1 -1 67 -211 153 -465 85 -255 155 -469 155 -477
0 -10 -18 -13 -69 -13 l-69 0 -100 298 -100 297 -1 -297 -1 -298 -70 0 -70 0
0 516 0 516 32 30 c17 16 45 36 61 45 39 20 546 316 817 478 118 70 256 151
305 180 487 286 521 304 540 299 11 -3 79 -40 150 -82z m905 -1383 c0 -32 -4
-38 -32 -50 -18 -7 -59 -40 -93 -74 -94 -93 -137 -200 -136 -341 1 -128 17
-174 148 -404 39 -69 84 -148 100 -176 l29 -52 134 390 134 390 35 -6 c20 -3
53 -6 73 -6 37 0 37 0 27 -27 -6 -16 -55 -156 -109 -313 -54 -157 -118 -342
-144 -412 -25 -70 -46 -131 -46 -136 0 -4 24 -22 53 -39 28 -17 120 -72 204
-122 83 -50 154 -91 157 -91 3 0 6 255 6 566 l0 565 23 -6 c12 -4 42 -16 67
-28 l45 -22 3 -595 c1 -415 -1 -603 -9 -622 -12 -29 -57 -57 -424 -268 -126
-73 -270 -156 -320 -185 -425 -248 -505 -295 -796 -463 -96 -56 -183 -102
-193 -102 -18 0 -92 41 -416 230 -91 53 -241 141 -335 195 -93 54 -233 135
-310 181 -77 45 -252 145 -390 223 -137 78 -260 153 -272 167 -22 24 -23 31
-23 247 0 211 1 226 25 297 32 96 33 97 78 105 l37 7 0 -246 c0 -135 2 -246 4
-246 13 0 393 231 401 244 8 13 -22 126 -62 234 -4 9 14 12 71 12 l76 0 17
-59 18 -59 33 59 33 59 75 0 c43 0 74 -4 74 -10 0 -6 -22 -50 -50 -98 -28 -48
-50 -91 -50 -95 0 -4 148 -7 329 -7 l328 0 7 -50 c4 -28 9 -57 12 -65 5 -13
-35 -15 -314 -15 -177 0 -323 -4 -326 -9 -6 -10 397 -497 758 -915 192 -223
172 -206 193 -176 10 14 56 70 103 125 47 55 139 163 205 240 65 77 169 199
231 270 206 241 373 448 368 456 -3 5 -151 9 -329 9 l-323 0 9 43 c5 23 11 52
14 65 l5 22 330 0 c185 0 330 4 330 9 0 5 -52 99 -116 210 -148 259 -175 329
-182 477 -4 91 -1 125 17 194 41 165 166 299 320 344 53 15 61 10 61 -45z"/>
<path d="M2895 4781 c-16 -10 -118 -70 -225 -133 -107 -63 -332 -196 -500
-295 -168 -99 -340 -199 -382 -223 -43 -24 -76 -45 -75 -47 2 -1 84 13 183 32
344 65 860 161 967 178 l67 11 0 248 c0 136 -1 248 -2 248 -2 0 -16 -9 -33
-19z"/>
<path d="M1695 2069 c-104 -61 -196 -116 -203 -123 -10 -9 4 -21 65 -56 97
-55 350 -201 423 -245 30 -18 78 -45 105 -60 28 -15 163 -94 300 -175 138 -81
266 -155 285 -165 l35 -18 -21 24 c-60 69 -320 373 -374 439 -25 30 -113 133
-195 230 -83 96 -166 194 -184 218 -19 23 -37 42 -40 42 -3 0 -91 -50 -196
-111z"/>
<path d="M4013 2062 c-53 -64 -152 -180 -218 -258 -66 -77 -163 -191 -215
-254 -52 -62 -135 -161 -185 -219 -88 -104 -89 -105 -45 -80 46 26 326 189
690 401 183 107 338 197 454 264 l38 22 -23 15 c-106 66 -357 211 -381 220
-13 4 -41 -23 -115 -111z"/>
<path d="M4616 3983 c27 -62 64 -107 105 -128 26 -14 181 -56 186 -51 2 1 -23
34 -55 72 -50 60 -70 75 -152 116 -52 26 -98 47 -102 47 -4 1 4 -25 18 -56z"/>
</g>
</svg>
